<svg width="297" height="100" viewBox="0 0 297 100" fill="none" xmlns="http://www.w3.org/2000/svg">
<path d="M52.4072 62.0588C52.4072 65.3504 51.1011 67.7398 48.494 69.267C46.4226 70.4813 43.4499 71.0654 39.5708 71.0654C35.7018 71.0654 32.7274 70.4379 30.6135 69.1318C28.1382 67.5579 26.8704 65.0758 26.8704 61.6515V53.366C30.3388 52.7818 37.774 51.6118 37.774 51.6118V61.9696C37.774 62.6889 37.9041 63.2791 38.2196 63.7229C38.5359 64.086 39.0325 64.2671 39.6626 64.2671C40.2944 64.2671 40.7416 64.086 41.0588 63.7229C41.3777 63.2791 41.5129 62.6889 41.5129 61.9696V53.0531H52.4072V62.0588ZM107.988 70.4379H97.1349V68.9541C96.5516 69.5366 95.6494 70.0332 94.4326 70.4379C93.3059 70.8444 91.9548 71.0654 90.38 71.0654C88.0816 71.0654 86.1437 70.4813 84.6556 69.267C83.1752 68.0519 82.4516 66.6123 82.4516 64.893V47.3321C86.0102 47.1043 89.6547 46.884 93.351 46.7004V62.1507C93.351 63.5035 93.9845 64.1787 95.243 64.1787C95.8705 64.1787 96.3203 64.0435 96.6392 63.7229C96.9521 63.3233 97.1349 62.825 97.1349 62.1923V46.4801C100.695 46.2973 104.339 46.1604 107.988 46.0278V70.4379ZM123.391 64.1787C123.889 64.1787 124.338 64.0435 124.606 63.7229C125.016 63.3233 125.194 62.825 125.194 62.1507V50.7096C124.439 50.8941 123.801 51.1033 123.304 51.3312C122.821 51.5455 122.464 51.7725 122.22 52.0174C121.68 52.5548 121.407 53.2359 121.407 54.0454V62.1507C121.407 62.825 121.588 63.3233 121.908 63.7229C122.247 64.0256 122.711 64.1685 123.304 64.1787H123.391ZM123.304 70.7899C122.308 70.9838 121.05 71.0654 119.474 71.0654C116.232 71.0654 113.933 70.4813 112.536 69.3546C111.186 68.1846 110.512 66.4304 110.512 64.086V55.1721C110.512 51.6118 112.944 48.6357 117.807 46.2973C118.304 46.0703 118.799 45.8475 119.248 45.6647L123.304 45.5728C127.513 45.4708 131.768 45.3858 136.09 45.3526V70.4379H126.457V68.7288C125.914 69.7185 125.104 70.3469 124.024 70.6224C123.797 70.6811 123.559 70.7398 123.304 70.7899ZM80.5163 62.0588C80.5163 64.893 79.5656 67.0579 77.7689 68.5468L80.694 73.9991H71.6831L70.1058 71.0221C69.3881 71.0654 68.6738 71.0654 67.8567 71.0654C63.9409 71.0654 60.9249 70.4379 58.7608 69.1318C56.1937 67.5579 54.9344 65.0758 54.9344 61.6515V49.6765C58.4895 49.27 62.14 48.9563 65.8321 48.5949V61.9696C65.8321 62.6889 65.9639 63.2791 66.2819 63.7229C66.5957 64.086 67.0922 64.2671 67.7274 64.2671C68.3533 64.2671 68.8056 64.086 69.1194 63.7229C69.4374 63.2791 69.6168 62.6889 69.6168 61.9696V48.2768C73.178 48.0107 76.7765 47.7386 80.5163 47.4682V62.0588ZM160.143 70.4379H153.253C148.521 70.4379 145.641 69.8121 144.559 68.5468C143.48 67.239 142.981 64.3096 142.981 59.7171V45.3101L148.658 45.2591L153.884 45.3101V59.632C153.884 60.9313 154.332 61.8327 155.191 62.3752C155.818 62.734 156.815 62.916 158.115 62.916H160.143V70.4379ZM200.997 46.5243V70.4379H190.093V46.0703C193.787 46.2038 197.391 46.3424 200.997 46.5243ZM187.978 62.0588C187.978 65.3938 186.713 67.8223 184.198 69.267C182.17 70.4813 179.241 71.0654 175.366 71.0654C171.447 71.0654 168.388 70.4379 166.268 69.1318C163.706 67.5579 162.396 65.0758 162.396 61.6515V45.3526C166.09 45.3934 169.739 45.4818 173.299 45.5312V61.9696C173.299 62.6889 173.477 63.2791 173.789 63.7229C174.108 64.086 174.552 64.2671 175.189 64.2671C175.815 64.2671 176.316 64.086 176.63 63.7229C176.941 63.2791 177.08 62.6889 177.08 61.9696V45.623C180.768 45.7131 184.377 45.8475 187.978 45.9776V62.0588ZM228.831 70.4379H217.932V47.5566C221.619 47.7854 225.273 48.0983 228.831 48.3687V70.4379ZM243.804 64.1787H243.872C244.411 64.1787 244.818 64.0435 245.136 63.7229C245.491 63.3233 245.676 62.825 245.676 62.1507V50.7096C244.932 50.8941 244.312 51.1033 243.804 51.3363C243.329 51.548 242.962 51.7776 242.702 52.0174C242.161 52.5548 241.938 53.2359 241.938 54.0454V62.1507C241.938 62.825 242.072 63.3233 242.385 63.7229C242.73 64.035 243.21 64.1685 243.804 64.1787ZM243.804 70.7899C242.826 70.9838 241.53 71.0654 239.951 71.0654C236.709 71.0654 234.414 70.4813 233.06 69.3546C231.711 68.1846 231.033 66.4304 231.033 64.086V55.1721C231.033 52.7818 232.073 50.7096 234.231 48.8644C237.489 49.1637 240.677 49.4809 243.804 49.8151C248.201 50.2853 252.463 50.7912 256.574 51.3457V70.4379H246.933V68.7288C246.394 69.7185 245.585 70.3469 244.511 70.6224C244.286 70.6811 244.058 70.7398 243.804 70.7899ZM270.134 70.4379H259.235V51.6994C263.017 52.2002 266.661 52.7376 270.134 53.3226V70.4379Z" fill="#6764AD"/>
<path d="M97.1329 42.4342V25.9856H107.988V41.8772C108.958 41.8347 109.936 41.7863 110.917 41.7471V34.6801C110.917 31.3885 112.224 29.0017 114.928 27.4669C116.923 26.3631 119.729 25.7416 123.297 25.6761C123.511 25.6718 123.722 25.665 123.934 25.665C127.803 25.665 130.689 26.341 132.627 27.6497C134.919 29.1369 136.096 31.6632 136.096 35.0789V41.0686C138.375 41.0303 140.671 41.0082 142.986 40.9972V32.5603H138.124V25.9856H142.986V17.0666H153.884V25.9856H159.742V32.5603H153.884V40.9972C156.741 41.0133 159.578 41.0405 162.396 41.0898V35.0789C162.396 31.7516 163.702 29.2729 166.266 27.739C168.444 26.3674 171.4 25.6888 175.189 25.6718L175.372 25.665C178.923 25.665 181.901 26.4762 184.285 28.0587C186.763 29.5434 187.978 31.7516 187.978 34.6801V41.8305C188.684 41.8594 189.391 41.8926 190.098 41.924V25.9856H200.995V27.4669C201.474 27.0927 202.094 26.7475 202.859 26.4601C203.112 26.3725 203.377 26.2858 203.654 26.2118C204.867 25.8444 206.215 25.665 207.749 25.665C210.053 25.665 211.894 26.2968 213.378 27.5604C214.909 28.7763 215.635 30.2619 215.635 32.0246V43.5184C216.4 43.5753 217.169 43.6374 217.928 43.7029V25.9856H223.381H228.831V44.6986C232.416 45.0557 235.919 45.4358 239.321 45.8397C243.535 43.748 245.677 42.2386 245.677 41.339V34.766C245.677 34.0432 245.534 33.5033 245.221 33.1453C244.904 32.7899 244.414 32.5603 243.784 32.5603C243.286 32.5603 242.839 32.7899 242.476 33.1453C242.117 33.5033 241.937 34.0432 241.937 34.766V43.549H231.395V34.6801C231.395 31.3885 232.748 29.0017 235.403 27.4669C237.567 26.2968 240.54 25.665 244.414 25.665C248.284 25.665 251.171 26.341 253.101 27.6497C255.401 29.1369 256.572 31.6632 256.572 35.0789V48.1917C256.75 48.2164 256.936 48.2555 257.111 48.281C257.826 48.3907 258.532 48.5097 259.234 48.6245V15.5785H270.128V50.6202C281.393 52.8983 290.524 55.4756 296.973 58.3199C282.424 54.2231 262.561 50.7988 239.05 48.281C233.995 47.7436 228.76 47.2521 223.381 46.8023C216.757 46.259 209.908 45.7794 202.859 45.3721C193.931 44.8661 184.682 44.4758 175.189 44.2216C166.487 43.9852 157.581 43.8627 148.521 43.8627C139.959 43.8627 131.537 43.9716 123.297 44.1799C103.504 44.6833 84.7794 45.7624 67.7237 47.3202C64.4007 47.6229 61.1414 47.9426 57.951 48.281C51.5667 48.9621 45.4495 49.7155 39.6376 50.5327C24.0478 52.712 10.6323 55.337 0.0270996 58.3199C6.48019 55.4756 15.6109 52.8983 26.8751 50.6202V35.0789C26.8751 31.7516 28.0902 29.2729 30.563 27.739C32.6837 26.341 35.6981 25.665 39.5747 25.665L39.6376 25.6718C43.4419 25.6761 46.3874 26.307 48.4911 27.4669C51.1042 28.9532 52.4086 31.3452 52.4086 34.6801V46.486C53.247 46.3814 54.0863 46.2751 54.934 46.1722V35.0789C54.934 31.7516 56.1933 29.2729 58.7605 27.739C60.9398 26.3572 63.9143 25.6837 67.7237 25.6718L67.858 25.665C71.4158 25.665 74.3877 26.4762 76.8213 28.0587C79.2566 29.5434 80.5159 31.7516 80.5159 34.6801V43.583C81.1588 43.5362 81.8067 43.4784 82.4547 43.4316V25.9856H93.3481V42.6646C94.6023 42.5873 95.8651 42.5082 97.1329 42.4342ZM202.859 32.7371C202.24 32.7371 201.76 32.8783 201.446 33.1904C201.129 33.5033 200.995 33.9999 200.995 34.6801V42.4988L202.859 42.6162L204.733 42.731V34.766C204.733 33.4166 204.146 32.7371 202.887 32.7371H202.859ZM175.189 41.3671L177.079 41.4189V34.766C177.079 34.0432 176.942 33.5033 176.629 33.1453C176.317 32.7899 175.816 32.5603 175.189 32.5603C174.688 32.5603 174.246 32.7899 173.882 33.1453C173.519 33.5033 173.299 34.0432 173.299 34.766V41.3126L175.189 41.3671ZM123.297 41.322L125.191 41.2744V34.766C125.191 34.0432 125.012 33.5033 124.699 33.1453C124.381 32.7899 123.934 32.5603 123.297 32.5603C122.757 32.5603 122.307 32.7899 121.951 33.1453C121.589 33.5033 121.414 34.0432 121.414 34.766V41.3773L123.297 41.322ZM67.7237 44.742L69.6123 44.5549V34.766C69.6123 34.0432 69.438 33.5033 69.1199 33.1453C68.8045 32.7899 68.3538 32.5603 67.7237 32.5603C67.1846 32.5603 66.7348 32.7899 66.37 33.1453C66.0077 33.5033 65.8317 34.0432 65.8317 34.766V44.9325L67.7237 44.742ZM39.6376 44.9452H41.5108V34.766C41.5108 34.0432 41.3765 33.5033 41.0593 33.1453C40.7422 32.7899 40.2957 32.5603 39.664 32.5603H39.6376C39.1129 32.5696 38.6648 32.7924 38.3094 33.1453C37.948 33.5033 37.7771 34.0432 37.7771 34.766V44.9452H39.6376ZM223.381 23.552H217.929V15.5785H223.381H228.831V23.552H223.381Z" fill="#2D307A"/>
<path d="M192.814 87.776L193.911 84.2685C194.169 83.4224 194.374 82.4292 194.584 81.601H194.627C194.837 82.4292 195.076 83.4045 195.345 84.2625L196.469 87.776H192.814ZM196.909 89.7352L198.199 93.7802H200.988L196.36 79.5347H193.044L188.48 93.7802H191.162L192.387 89.7352H196.909ZM179.943 93.7802H182.54V79.5407H179.943V93.7802ZM173.265 85.9172H168.23V87.9665H170.754V91.5174C170.414 91.6901 169.716 91.8125 168.784 91.8125C165.825 91.8125 163.837 89.8874 163.837 86.6536C163.837 83.3348 165.971 81.5389 169.013 81.5389C170.517 81.5389 171.466 81.8136 172.249 82.152L172.821 80.0407C172.163 79.7465 170.794 79.3851 169.035 79.3851C164.322 79.3851 161.112 82.2838 161.112 86.7812C161.09 88.935 161.83 90.8202 163.099 92.0217C164.452 93.3125 166.27 93.9264 168.684 93.9264C170.582 93.9264 172.354 93.4604 173.265 93.1203V85.9172ZM148.388 81.5219C148.641 81.4513 149.172 81.3935 149.994 81.3935C151.686 81.3935 152.786 82.1146 152.786 83.6758C152.786 85.095 151.686 86.0286 149.931 86.0286H148.388V81.5219ZM145.813 93.7802H148.388V87.9214H149.701C151.179 87.9665 151.858 88.5592 152.259 90.4188C152.663 92.1909 152.997 93.3516 153.207 93.7802H155.893C155.594 93.2266 155.215 91.5804 154.772 89.8049C154.415 88.4291 153.801 87.4376 152.786 87.0567V86.9946C154.112 86.5082 155.364 85.2625 155.364 83.4266C155.364 82.2141 154.923 81.2201 154.136 80.5721C153.186 79.7626 151.794 79.4335 149.743 79.4335C148.238 79.4335 146.781 79.556 145.813 79.7226V93.7802ZM138.877 85.3484H133.512V81.6631H139.194V79.5347H130.914V93.7802H139.514V91.6399H133.512V87.4589H138.877V85.3484ZM114.999 93.7802V88.6859C114.999 86.3373 114.982 84.4538 114.869 82.6214L114.932 82.595C115.634 84.2047 116.585 85.9563 117.493 87.4971L121.214 93.7802H123.895V79.5347H121.484V84.5032C121.484 86.6757 121.555 88.5192 121.723 90.4188H121.678C121.023 88.8772 120.197 87.2276 119.246 85.6434L115.571 79.5347H112.613V93.7802H114.999ZM105.678 85.3484H100.311V81.6631H105.993V79.5347H97.7124V93.7802H106.312V91.6399H100.311V87.4589H105.678V85.3484Z" fill="#565353"/>
<path d="M35.9572 16.5043C35.2718 16.7594 33.9342 17.1098 32.5176 17.1098C30.7022 17.1098 29.3161 16.648 28.2975 15.6761C27.3425 14.768 26.8 13.3514 26.8 11.7272C26.8162 8.31915 29.2209 6.15339 32.7727 6.15339C34.0941 6.15339 35.1289 6.42464 35.623 6.66273L35.1936 8.23922C34.6034 7.96882 33.8866 7.7775 32.7565 7.7775C30.4632 7.7775 28.8544 9.13121 28.8544 11.632C28.8544 14.0682 30.3518 15.5171 32.5805 15.5171C33.2973 15.5171 33.8075 15.4219 34.0618 15.3105V12.6192H32.1673V11.0742H35.9572V16.5043Z" fill="#565353"/>
<path d="M44.1897 11.1537H45.3521C46.6743 11.1537 47.4864 10.453 47.4864 9.38589C47.4864 8.2235 46.6743 7.66568 45.4006 7.66568C44.779 7.66568 44.381 7.71415 44.1897 7.76177V11.1537ZM42.2476 6.42422C42.9958 6.28136 44.0783 6.18527 45.2092 6.18527C46.7543 6.18527 47.7883 6.44037 48.5212 7.04495C49.1105 7.53898 49.4455 8.28726 49.4455 9.21071C49.4455 10.5967 48.5051 11.5355 47.4864 11.8867V11.9343C48.2661 12.2209 48.7287 12.9691 48.983 14.0048C49.3333 15.3415 49.6198 16.5838 49.8273 16.998H47.8214C47.6616 16.6799 47.3912 15.8033 47.1046 14.4665C46.7857 13.0652 46.2917 12.6188 45.1769 12.5865H44.1897V16.998H42.2476V6.42422Z" fill="#565353"/>
<path d="M57.5341 6.2648V12.5232C57.5341 14.6252 58.4099 15.5971 59.7313 15.5971C61.1488 15.5971 61.9932 14.6252 61.9932 12.5232V6.2648H63.9515V12.3956C63.9515 15.7076 62.2474 17.1727 59.6684 17.1727C57.1838 17.1727 55.575 15.7875 55.575 12.4118V6.2648H57.5341Z" fill="#565353"/>
<path d="M72.4231 11.3925C72.6782 11.4724 72.9801 11.4877 73.3789 11.4877C74.844 11.4877 75.7359 10.7556 75.7359 9.51327C75.7359 8.31942 74.9077 7.69784 73.554 7.69784C73.0124 7.69784 72.6306 7.7463 72.4231 7.79392V11.3925ZM70.481 6.40875C71.1969 6.28035 72.1688 6.18511 73.4741 6.18511C74.9077 6.18511 75.9434 6.48783 76.6271 7.06094C77.264 7.58644 77.6789 8.43081 77.6789 9.43419C77.6789 10.4529 77.3601 11.2811 76.7708 11.8542C75.9749 12.634 74.764 13.0166 73.3789 13.0166C73.0124 13.0166 72.6935 13.0013 72.4231 12.9375V16.9986H70.481V6.40875Z" fill="#565353"/>
<path d="M85.1786 11.6636C85.1786 13.8609 86.2772 15.5964 88.1564 15.5964C90.0509 15.5964 91.1181 13.8286 91.1181 11.5837C91.1181 9.56166 90.1147 7.65099 88.1564 7.65099C86.2134 7.65099 85.1786 9.44941 85.1786 11.6636ZM93.1886 11.5199C93.1886 15.1185 91.0067 17.1737 88.0612 17.1737C85.0196 17.1737 83.1072 14.8489 83.1072 11.7113C83.1072 8.39926 85.1947 6.07363 88.2193 6.07363C91.3408 6.07363 93.1886 8.44688 93.1886 11.5199Z" fill="#565353"/>
</svg>
